<?xml version="1.0" encoding="UTF-8" standalone="no"?>
<!DOCTYPE svg PUBLIC "-//W3C//DTD SVG 1.1//EN" "http://www.w3.org/Graphics/SVG/1.1/DTD/svg11.dtd">
<svg width="100%" height="100%" viewBox="0 0 952 189" version="1.1" xmlns="http://www.w3.org/2000/svg" xmlns:xlink="http://www.w3.org/1999/xlink" xml:space="preserve" xmlns:serif="http://www.serif.com/" style="fill-rule:evenodd;clip-rule:evenodd;stroke-linejoin:round;stroke-miterlimit:2;">
    <g transform="matrix(3.125,0,0,3.125,0,0)">
        <g transform="matrix(1,0,0,1,-0.00948859,11.8887)">
            <g>
                <g>
                    <g>
                        <path id="text-0" d="M6.491,20.045L0.326,20.045L0.326,3.984L0.009,1.423L14.648,1.423C16.06,1.423 17.192,1.575 18.044,1.878C18.9,2.186 19.545,2.597 19.979,3.111C20.409,3.63 20.693,4.23 20.832,4.913C20.967,5.6 21.035,6.323 21.035,7.082L21.035,9.58C21.035,10.592 20.873,11.523 20.548,12.375C20.219,13.231 19.618,13.916 18.746,14.43C17.869,14.949 16.608,15.208 14.964,15.208L12.783,15.208C11.455,15.208 10.215,15.176 9.065,15.113C7.918,15.05 7.06,14.997 6.491,14.955L6.491,20.045ZM6.491,5.786L6.491,10.908L13.036,10.908C13.731,10.908 14.216,10.771 14.49,10.497C14.764,10.223 14.901,9.78 14.901,9.169L14.901,7.556C14.901,6.945 14.775,6.496 14.522,6.21C14.269,5.927 13.784,5.786 13.067,5.786L6.491,5.786ZM38.14,20.045L29.35,20.045C27.959,20.045 26.916,19.845 26.22,19.444C25.524,19.044 25.065,18.49 24.842,17.781C24.622,17.077 24.513,16.262 24.513,15.334L24.513,10.56C24.513,9.675 24.629,8.878 24.86,8.17C25.092,7.466 25.55,6.907 26.233,6.494C26.92,6.085 27.959,5.881 29.35,5.881L38.14,5.881C39.531,5.881 40.568,6.085 41.251,6.494C41.938,6.907 42.391,7.466 42.61,8.17C42.834,8.878 42.945,9.675 42.945,10.56L42.945,15.334C42.945,16.262 42.834,17.077 42.61,17.781C42.391,18.49 41.938,19.044 41.251,19.444C40.568,19.845 39.531,20.045 38.14,20.045ZM31.879,16.061L35.642,16.061C36.654,16.061 37.149,15.64 37.128,14.797L37.128,11.129C37.128,10.708 37.016,10.391 36.793,10.181C36.574,9.97 36.19,9.865 35.642,9.865L31.911,9.865C31.363,9.865 30.973,9.97 30.741,10.181C30.509,10.391 30.393,10.708 30.393,11.129L30.393,14.797C30.372,15.64 30.868,16.061 31.879,16.061ZM52.178,25.926L46.423,25.926L46.423,5.881L50.913,5.881L51.703,6.292C52.652,6.186 53.674,6.092 54.77,6.007C55.866,5.923 57.257,5.881 58.944,5.881L59.892,5.881C61.304,5.881 62.352,6.102 63.035,6.545C63.722,6.987 64.175,7.561 64.394,8.265C64.618,8.973 64.73,9.738 64.73,10.56L64.73,15.334C64.73,16.262 64.565,17.084 64.236,17.8C63.912,18.517 63.349,19.069 62.548,19.457C61.747,19.849 60.651,20.045 59.26,20.045L58.311,20.045C57.173,20.045 56.039,19.997 54.909,19.9C53.784,19.807 52.873,19.729 52.178,19.666L52.178,25.926ZM53.158,16.061L57.363,16.061C58.375,16.061 58.88,15.64 58.88,14.797L58.88,11.129C58.88,10.708 58.796,10.391 58.627,10.181C58.459,9.97 58.037,9.865 57.363,9.865L57.078,9.865C55.729,9.865 54.68,9.896 53.929,9.959C53.183,10.023 52.599,10.075 52.178,10.117L52.178,15.081C52.178,15.545 52.224,15.823 52.317,15.916C52.414,16.013 52.694,16.061 53.158,16.061ZM79.046,20.045L73.039,20.045C71.647,20.045 70.579,19.845 69.833,19.444C69.082,19.044 68.57,18.49 68.296,17.781C68.022,17.077 67.885,16.262 67.885,15.334L67.885,10.56C67.885,9.717 68.028,8.941 68.315,8.233C68.597,7.529 69.107,6.96 69.845,6.526C70.583,6.096 71.647,5.881 73.039,5.881L77.086,5.881C79.509,5.881 81.291,5.986 82.429,6.197C83.567,6.408 84.21,6.619 84.357,6.829L83.409,10.181C82.966,10.139 82.165,10.075 81.006,9.991C79.847,9.907 78.572,9.865 77.18,9.865L75.252,9.865C74.704,9.865 74.314,9.97 74.082,10.181C73.85,10.391 73.734,10.708 73.734,11.129L73.734,14.797C73.734,15.218 73.839,15.535 74.05,15.745C74.261,15.956 74.662,16.061 75.252,16.061L76.864,16.061C78.424,16.061 79.769,16.024 80.899,15.948C82.024,15.876 82.85,15.809 83.377,15.745L85.274,18.749C85.274,19.044 84.754,19.333 83.712,19.615C82.667,19.902 81.111,20.045 79.046,20.045ZM100.798,20.045L92.009,20.045C90.618,20.045 89.574,19.845 88.879,19.444C88.183,19.044 87.726,18.49 87.506,17.781C87.283,17.077 87.171,16.262 87.171,15.334L87.171,10.56C87.171,9.675 87.287,8.878 87.519,8.17C87.751,7.466 88.21,6.907 88.898,6.494C89.581,6.085 90.618,5.881 92.009,5.881L100.798,5.881C102.189,5.881 103.229,6.085 103.916,6.494C104.599,6.907 105.052,7.466 105.275,8.17C105.494,8.878 105.604,9.675 105.604,10.56L105.604,15.334C105.604,16.262 105.494,17.077 105.275,17.781C105.052,18.49 104.599,19.044 103.916,19.444C103.229,19.845 102.189,20.045 100.798,20.045ZM94.538,16.061L98.301,16.061C99.312,16.061 99.808,15.64 99.787,14.797L99.787,11.129C99.787,10.708 99.677,10.391 99.458,10.181C99.234,9.97 98.849,9.865 98.301,9.865L94.57,9.865C94.022,9.865 93.632,9.97 93.4,10.181C93.168,10.391 93.052,10.708 93.052,11.129L93.052,14.797C93.031,15.64 93.526,16.061 94.538,16.061ZM114.836,20.045L109.082,20.045L109.082,5.881L113.572,5.881L114.773,6.513C115.743,5.881 117.028,5.565 118.63,5.565C119.684,5.565 120.612,5.674 121.413,5.893C122.214,6.117 122.861,6.355 123.354,6.608C123.851,6.861 124.163,7.04 124.29,7.145L122.709,11.256C122.498,11.108 122.102,10.908 121.52,10.655C120.943,10.402 120.264,10.164 119.484,9.94C118.704,9.721 117.882,9.612 117.018,9.612L116.67,9.612C116.08,9.612 115.627,9.711 115.311,9.909C114.994,10.111 114.836,10.55 114.836,11.224L114.836,20.045ZM132.352,20.045L126.503,20.045L126.503,5.881L131.087,5.881L132.352,6.513C133.237,6.344 134.306,6.197 135.558,6.07C136.814,5.944 137.99,5.881 139.087,5.881L140.667,5.881C141.721,5.881 142.533,6.028 143.102,6.323C143.671,6.619 144.076,6.987 144.316,7.43C144.561,7.873 144.708,8.322 144.759,8.777C144.813,9.228 144.841,9.612 144.841,9.928L144.841,20.045L139.055,20.045L139.055,11.129C139.055,10.286 138.549,9.865 137.537,9.865L133.301,9.865C132.9,9.865 132.641,9.9 132.523,9.972C132.409,10.048 132.352,10.244 132.352,10.56L132.352,20.045ZM155.584,20.045L149.419,20.045L149.419,3.984L149.103,1.423L163.742,1.423C165.154,1.423 166.288,1.575 167.144,1.878C167.995,2.186 168.638,2.597 169.072,3.111C169.502,3.63 169.787,4.23 169.926,4.913C170.061,5.6 170.128,6.323 170.128,7.082L170.128,9.58C170.128,10.592 169.966,11.523 169.641,12.375C169.312,13.231 168.712,13.916 167.839,14.43C166.962,14.949 165.702,15.208 164.058,15.208L161.876,15.208C160.548,15.208 159.311,15.176 158.164,15.113C157.013,15.05 156.153,14.997 155.584,14.955L155.584,20.045ZM155.584,5.786L155.584,10.908L162.129,10.908C162.825,10.908 163.309,10.771 163.583,10.497C163.857,10.223 163.994,9.78 163.994,9.169L163.994,7.556C163.994,6.945 163.868,6.496 163.615,6.21C163.362,5.927 162.877,5.786 162.161,5.786L155.584,5.786ZM179.487,20.045L178.57,20.045C177.179,20.045 176.142,19.839 175.459,19.426C174.772,19.017 174.318,18.454 174.099,17.737C173.876,17.021 173.764,16.23 173.764,15.366L173.764,5.881L179.582,5.881L179.582,14.797C179.582,15.64 180.088,16.061 181.099,16.061L184.704,16.061C185.167,16.061 185.441,16.019 185.526,15.935C185.61,15.851 185.652,15.577 185.652,15.113L185.652,5.881L191.501,5.881L191.501,20.045L186.917,20.045L185.715,19.413C184.872,19.581 183.903,19.729 182.807,19.856C181.711,19.982 180.604,20.045 179.487,20.045ZM201.366,20.045L195.611,20.045L195.611,2.529L195.295,0L201.366,0L201.366,20.045ZM218.344,20.045L208.733,20.045C207.32,20.045 206.319,19.971 205.729,19.824C205.139,19.676 204.844,19.529 204.844,19.381L206.108,16.061C206.361,16.125 207.114,16.192 208.366,16.264C209.622,16.34 211.452,16.378 213.855,16.378L216.099,16.378C216.626,16.378 216.957,16.319 217.092,16.201C217.231,16.087 217.301,15.882 217.301,15.587C217.301,15.229 217.221,15.001 217.06,14.904C216.905,14.812 216.584,14.765 216.099,14.765L209.681,14.765C208.142,14.765 206.951,14.474 206.108,13.893C205.265,13.315 204.844,12.278 204.844,10.781L204.844,10.149C204.844,9.369 204.949,8.657 205.16,8.012C205.371,7.371 205.824,6.855 206.519,6.463C207.215,6.075 208.269,5.881 209.681,5.881L219.04,5.881C220.304,5.881 221.2,5.955 221.727,6.102C222.254,6.25 222.518,6.397 222.518,6.545L222.201,9.896C221.864,9.833 221.015,9.763 219.653,9.687C218.296,9.616 216.426,9.58 214.044,9.58L211.799,9.58C211.272,9.58 210.939,9.637 210.8,9.751C210.665,9.869 210.598,10.065 210.598,10.339C210.598,10.613 210.665,10.807 210.8,10.921C210.939,11.039 211.272,11.098 211.799,11.098L218.344,11.098C219.988,11.098 221.2,11.456 221.98,12.173C222.76,12.889 223.15,13.89 223.15,15.176L223.15,15.777C223.15,16.536 223.055,17.236 222.865,17.876C222.676,18.521 222.244,19.044 221.569,19.444C220.895,19.845 219.82,20.045 218.344,20.045ZM238.193,20.045L231.459,20.045C230.068,20.045 228.999,19.845 228.253,19.444C227.503,19.044 226.99,18.49 226.716,17.781C226.442,17.077 226.305,16.262 226.305,15.334L226.305,10.56C226.305,9.717 226.449,8.941 226.735,8.233C227.018,7.529 227.528,6.96 228.266,6.526C229.003,6.096 230.068,5.881 231.459,5.881L238.004,5.881C239.648,5.881 240.908,6.075 241.785,6.463C242.658,6.855 243.258,7.403 243.587,8.107C243.912,8.815 244.074,9.633 244.074,10.56L244.074,14.607L238.541,14.607C236.644,14.607 235.207,14.565 234.229,14.481C233.246,14.396 232.555,14.344 232.154,14.323L232.154,14.797C232.133,15.64 232.639,16.061 233.672,16.061L234.652,16.061C236.338,16.061 237.898,16.024 239.332,15.948C240.765,15.876 241.829,15.809 242.525,15.745L244.422,18.749C244.422,18.96 244.243,19.16 243.884,19.35C243.526,19.539 242.9,19.702 242.006,19.837C241.108,19.976 239.837,20.045 238.193,20.045ZM232.154,11.129L232.154,11.572L238.225,11.572L238.225,11.129C238.225,10.708 238.189,10.413 238.117,10.244C238.042,10.075 237.814,9.97 237.435,9.928C237.055,9.886 236.412,9.865 235.506,9.865L233.672,9.865C232.66,9.865 232.154,10.286 232.154,11.129Z" style="fill:rgb(255,64,87);fill-rule:nonzero;"/>
                    </g>
                </g>
            </g>
        </g>
        <g transform="matrix(1,0,0,1,-0.00948859,42.4614)">
            <g>
                <g>
                    <g>
                        <path id="text-1" d="M6.12,8.463C6.12,8.261 6.076,8.082 5.989,7.927C5.904,7.769 5.727,7.614 5.458,7.46C5.192,7.307 4.785,7.14 4.238,6.959C3.75,6.792 3.274,6.603 2.81,6.39C2.348,6.175 1.932,5.923 1.564,5.636C1.193,5.346 0.899,5.005 0.682,4.613C0.463,4.222 0.353,3.763 0.353,3.236C0.353,2.572 0.546,1.999 0.931,1.518C1.317,1.036 1.842,0.665 2.506,0.403C3.173,0.138 3.93,0.006 4.778,0.006C5.615,0.006 6.354,0.149 6.995,0.435C7.638,0.718 8.143,1.125 8.51,1.655C8.876,2.185 9.059,2.819 9.059,3.556L6.142,3.556C6.142,3.313 6.091,3.098 5.989,2.911C5.889,2.723 5.733,2.577 5.522,2.473C5.312,2.369 5.042,2.316 4.714,2.316C4.397,2.316 4.13,2.361 3.915,2.451C3.7,2.538 3.538,2.653 3.43,2.796C3.323,2.938 3.27,3.098 3.27,3.275C3.27,3.479 3.354,3.656 3.522,3.805C3.688,3.956 3.92,4.097 4.216,4.227C4.512,4.357 4.855,4.487 5.244,4.617C6.056,4.877 6.744,5.18 7.308,5.527C7.873,5.872 8.303,6.283 8.599,6.76C8.895,7.235 9.043,7.798 9.043,8.447C9.043,9.14 8.871,9.726 8.526,10.208C8.178,10.687 7.689,11.052 7.056,11.304C6.421,11.553 5.675,11.677 4.816,11.677C4.224,11.677 3.643,11.602 3.072,11.451C2.503,11.299 1.989,11.065 1.529,10.748C1.069,10.43 0.702,10.024 0.43,9.527C0.155,9.031 0.018,8.437 0.018,7.745L2.95,7.745C2.95,8.058 2.989,8.317 3.065,8.524C3.14,8.733 3.255,8.901 3.411,9.029C3.568,9.157 3.763,9.247 3.995,9.3C4.23,9.356 4.503,9.384 4.816,9.384C5.138,9.384 5.394,9.34 5.583,9.253C5.773,9.163 5.909,9.048 5.992,8.907C6.077,8.767 6.12,8.619 6.12,8.463ZM15.337,2.901L12.679,11.521L9.535,11.521L13.698,0.163L15.679,0.163L15.337,2.901ZM17.491,11.521L14.823,2.901L14.439,0.163L16.446,0.163L20.634,11.521L17.491,11.521ZM17.459,7.256L17.459,9.617L11.631,9.617L11.631,7.256L17.459,7.256ZM26.031,0.163L26.031,11.521L23.104,11.521L23.104,0.163L26.031,0.163ZM29.385,0.163L29.385,2.527L19.823,2.527L19.823,0.163L29.385,0.163ZM33.574,0.163L33.574,11.521L30.654,11.521L30.654,0.163L33.574,0.163ZM41.136,8.463C41.136,8.261 41.094,8.082 41.008,7.927C40.923,7.769 40.747,7.614 40.478,7.46C40.21,7.307 39.803,7.14 39.258,6.959C38.77,6.792 38.294,6.603 37.83,6.39C37.367,6.175 36.952,5.923 36.584,5.636C36.213,5.346 35.919,5.005 35.702,4.613C35.482,4.222 35.373,3.763 35.373,3.236C35.373,2.572 35.565,1.999 35.951,1.518C36.336,1.036 36.861,0.665 37.526,0.403C38.193,0.138 38.95,0.006 39.798,0.006C40.635,0.006 41.374,0.149 42.015,0.435C42.658,0.718 43.163,1.125 43.529,1.655C43.896,2.185 44.079,2.819 44.079,3.556L41.162,3.556C41.162,3.313 41.111,3.098 41.008,2.911C40.908,2.723 40.753,2.577 40.542,2.473C40.331,2.369 40.062,2.316 39.734,2.316C39.416,2.316 39.15,2.361 38.935,2.451C38.718,2.538 38.556,2.653 38.449,2.796C38.343,2.938 38.29,3.098 38.29,3.275C38.29,3.479 38.373,3.656 38.539,3.805C38.707,3.956 38.939,4.097 39.235,4.227C39.531,4.357 39.874,4.487 40.264,4.617C41.076,4.877 41.764,5.18 42.328,5.527C42.892,5.872 43.323,6.283 43.619,6.76C43.915,7.235 44.063,7.798 44.063,8.447C44.063,9.14 43.89,9.726 43.545,10.208C43.198,10.687 42.707,11.052 42.072,11.304C41.44,11.553 40.694,11.677 39.836,11.677C39.242,11.677 38.66,11.602 38.092,11.451C37.523,11.299 37.008,11.065 36.548,10.748C36.088,10.43 35.721,10.024 35.446,9.527C35.173,9.031 35.037,8.437 35.037,7.745L37.97,7.745C37.97,8.058 38.008,8.317 38.085,8.524C38.16,8.733 38.275,8.901 38.43,9.029C38.588,9.157 38.783,9.247 39.015,9.3C39.249,9.356 39.523,9.384 39.836,9.384C40.158,9.384 40.413,9.34 40.603,9.253C40.792,9.163 40.929,9.048 41.012,8.907C41.095,8.767 41.136,8.619 41.136,8.463ZM48.344,0.163L48.344,11.521L45.411,11.521L45.411,0.163L48.344,0.163ZM52.641,4.789L52.641,7.144L47.526,7.144L47.526,4.789L52.641,4.789ZM53.063,0.163L53.063,2.527L47.526,2.527L47.526,0.163L53.063,0.163ZM56.408,0.163L58.351,4.859L60.293,0.163L63.443,0.163L59.839,7.479L59.839,11.521L56.868,11.521L56.868,7.479L53.258,0.163L56.408,0.163ZM70.479,0.163L72.421,4.859L74.364,0.163L77.514,0.163L73.91,7.479L73.91,11.521L70.939,11.521L70.939,7.479L67.328,0.163L70.479,0.163ZM87.677,5.677L87.677,6.013C87.677,7.189 87.463,8.199 87.035,9.045C86.604,9.89 86.012,10.54 85.258,10.994C84.504,11.45 83.642,11.677 82.67,11.677C81.686,11.677 80.815,11.45 80.057,10.994C79.297,10.54 78.702,9.89 78.274,9.045C77.846,8.199 77.632,7.189 77.632,6.013L77.632,5.677C77.632,4.504 77.845,3.494 78.271,2.649C78.697,1.803 79.288,1.151 80.044,0.693C80.8,0.235 81.67,0.006 82.654,0.006C83.626,0.006 84.49,0.235 85.249,0.693C86.005,1.151 86.598,1.803 87.028,2.649C87.461,3.494 87.677,4.504 87.677,5.677ZM84.706,6.013L84.706,5.665C84.706,4.947 84.626,4.346 84.466,3.863C84.308,3.377 84.076,3.013 83.769,2.77C83.463,2.525 83.091,2.403 82.654,2.403C82.196,2.403 81.816,2.525 81.514,2.77C81.214,3.013 80.988,3.377 80.837,3.863C80.685,4.346 80.61,4.947 80.61,5.665L80.61,6.013C80.61,6.716 80.686,7.311 80.84,7.799C80.993,8.289 81.222,8.659 81.527,8.911C81.831,9.164 82.212,9.291 82.67,9.291C83.107,9.291 83.478,9.164 83.782,8.911C84.085,8.659 84.315,8.289 84.472,7.799C84.628,7.311 84.706,6.716 84.706,6.013ZM95.08,0.163L98.003,0.163L98.003,7.521C98.003,8.413 97.818,9.169 97.447,9.789C97.074,10.409 96.551,10.879 95.878,11.198C95.205,11.518 94.414,11.677 93.504,11.677C92.603,11.677 91.811,11.518 91.127,11.198C90.444,10.879 89.912,10.409 89.533,9.789C89.154,9.169 88.964,8.413 88.964,7.521L88.964,0.163L91.904,0.163L91.904,7.521C91.904,7.951 91.963,8.299 92.083,8.566C92.202,8.83 92.382,9.021 92.623,9.141C92.861,9.262 93.155,9.323 93.504,9.323C93.858,9.323 94.15,9.262 94.38,9.141C94.612,9.021 94.787,8.83 94.904,8.566C95.021,8.299 95.08,7.951 95.08,7.521L95.08,0.163ZM99.616,0.163L104.156,0.163C105.047,0.163 105.817,0.295 106.466,0.559C107.116,0.821 107.618,1.207 107.971,1.716C108.325,2.225 108.501,2.856 108.501,3.61C108.501,4.288 108.401,4.846 108.201,5.284C108.001,5.723 107.723,6.082 107.367,6.361C107.012,6.64 106.594,6.878 106.115,7.074L105.156,7.661L101.45,7.661L101.434,5.297L104.128,5.297C104.449,5.297 104.718,5.245 104.933,5.141C105.15,5.036 105.312,4.882 105.418,4.677C105.525,4.471 105.578,4.217 105.578,3.917C105.578,3.48 105.458,3.14 105.217,2.895C104.978,2.65 104.625,2.527 104.156,2.527L102.543,2.527L102.543,11.521L99.616,11.521L99.616,0.163ZM105.741,11.521L103.275,6.521L106.38,6.498L108.875,11.396L108.875,11.521L105.741,11.521ZM115.498,0.163L117.869,0.163L120.233,7.668L122.588,0.163L124.959,0.163L121.192,11.521L119.265,11.521L115.498,0.163ZM114.032,0.163L116.505,0.163L116.965,9.336L116.965,11.521L114.032,11.521L114.032,0.163ZM123.952,0.163L126.431,0.163L126.431,11.521L123.492,11.521L123.492,9.336L123.952,0.163ZM137.796,5.677L137.796,6.013C137.796,7.189 137.582,8.199 137.154,9.045C136.723,9.89 136.131,10.54 135.377,10.994C134.623,11.45 133.761,11.677 132.789,11.677C131.807,11.677 130.936,11.45 130.176,10.994C129.418,10.54 128.823,9.89 128.393,9.045C127.965,8.199 127.751,7.189 127.751,6.013L127.751,5.677C127.751,4.504 127.964,3.494 128.39,2.649C128.816,1.803 129.407,1.151 130.163,0.693C130.921,0.235 131.791,0.006 132.773,0.006C133.747,0.006 134.611,0.235 135.368,0.693C136.124,1.151 136.718,1.803 137.15,2.649C137.581,3.494 137.796,4.504 137.796,5.677ZM134.824,6.013L134.824,5.665C134.824,4.947 134.746,4.346 134.588,3.863C134.428,3.377 134.195,3.013 133.888,2.77C133.582,2.525 133.21,2.403 132.773,2.403C132.315,2.403 131.936,2.525 131.636,2.77C131.333,3.013 131.107,3.377 130.955,3.863C130.804,4.346 130.729,4.947 130.729,5.665L130.729,6.013C130.729,6.716 130.805,7.311 130.959,7.799C131.112,8.289 131.341,8.659 131.646,8.911C131.95,9.164 132.331,9.291 132.789,9.291C133.226,9.291 133.597,9.164 133.901,8.911C134.206,8.659 134.436,8.289 134.591,7.799C134.747,7.311 134.824,6.716 134.824,6.013ZM143.234,8.594L145.486,0.163L148.764,0.163L144.972,11.521L142.86,11.521L143.234,8.594ZM141.265,0.163L143.505,8.594L143.904,11.521L141.773,11.521L138.007,0.163L141.265,0.163ZM152.601,0.163L152.601,11.521L149.684,11.521L149.684,0.163L152.601,0.163ZM162.279,9.166L162.279,11.521L156.282,11.521L156.282,9.166L162.279,9.166ZM157.317,0.163L157.317,11.521L154.384,11.521L154.384,0.163L157.317,0.163ZM161.505,4.562L161.505,6.834L156.282,6.834L156.282,4.562L161.505,4.562ZM162.301,0.163L162.301,2.527L156.282,2.527L156.282,0.163L162.301,0.163ZM173.697,7.614L176.614,7.614C176.582,8.414 176.369,9.12 175.975,9.732C175.579,10.343 175.032,10.82 174.333,11.163C173.632,11.506 172.809,11.677 171.863,11.677C170.839,11.677 169.962,11.453 169.234,11.003C168.508,10.552 167.953,9.907 167.569,9.07C167.188,8.233 166.997,7.235 166.997,6.077L166.997,5.617C166.997,4.452 167.198,3.451 167.598,2.613C167.999,1.776 168.559,1.131 169.279,0.677C169.999,0.226 170.844,0 171.815,0C172.825,0 173.675,0.182 174.365,0.546C175.053,0.911 175.585,1.407 175.962,2.035C176.339,2.666 176.562,3.376 176.63,4.166L173.713,4.166C173.703,3.572 173.559,3.13 173.282,2.84C173.007,2.548 172.518,2.403 171.815,2.403C171.396,2.403 171.05,2.503 170.777,2.703C170.502,2.903 170.299,3.235 170.167,3.7C170.035,4.166 169.969,4.8 169.969,5.601L169.969,6.077C169.969,6.882 170.027,7.518 170.144,7.984C170.262,8.448 170.459,8.78 170.736,8.978C171.015,9.176 171.39,9.275 171.863,9.275C172.253,9.275 172.583,9.217 172.854,9.102C173.124,8.987 173.331,8.808 173.474,8.566C173.616,8.321 173.691,8.003 173.697,7.614ZM177.806,0.163L182.346,0.163C183.236,0.163 184.006,0.295 184.656,0.559C185.305,0.821 185.807,1.207 186.161,1.716C186.514,2.225 186.691,2.856 186.691,3.61C186.691,4.288 186.591,4.846 186.391,5.284C186.19,5.723 185.913,6.082 185.557,6.361C185.201,6.64 184.784,6.878 184.304,7.074L183.346,7.661L179.64,7.661L179.624,5.297L182.314,5.297C182.638,5.297 182.907,5.245 183.122,5.141C183.337,5.036 183.498,4.882 183.605,4.677C183.711,4.471 183.764,4.217 183.764,3.917C183.764,3.48 183.645,3.14 183.407,2.895C183.168,2.65 182.814,2.527 182.346,2.527L180.732,2.527L180.732,11.521L177.806,11.521L177.806,0.163ZM183.931,11.521L181.464,6.521L184.57,6.498L187.065,11.396L187.065,11.521L183.931,11.521ZM193.266,2.901L190.605,11.521L187.461,11.521L191.627,0.163L193.608,0.163L193.266,2.901ZM195.42,11.521L192.752,2.901L192.368,0.163L194.375,0.163L198.563,11.521L195.42,11.521ZM195.388,7.256L195.388,9.617L189.56,9.617L189.56,7.256L195.388,7.256ZM202.445,8.594L204.701,0.163L207.976,0.163L204.186,11.521L202.071,11.521L202.445,8.594ZM200.48,0.163L202.72,8.594L203.116,11.521L200.988,11.521L197.218,0.163L200.48,0.163ZM211.813,0.163L211.813,11.521L208.896,11.521L208.896,0.163L211.813,0.163ZM223.193,0.163L223.193,11.521L220.276,11.521L216.522,4.952L216.522,11.521L213.599,11.521L213.599,0.163L216.522,0.163L220.276,6.732L220.276,0.163L223.193,0.163ZM234.212,5.329L234.212,10.118C234.01,10.336 233.708,10.566 233.305,10.808C232.902,11.049 232.397,11.254 231.787,11.422C231.178,11.592 230.464,11.677 229.644,11.677C228.623,11.677 227.735,11.462 226.979,11.032C226.223,10.604 225.635,9.976 225.215,9.147C224.798,8.316 224.589,7.304 224.589,6.109L224.589,5.594C224.589,4.393 224.799,3.376 225.219,2.543C225.64,1.71 226.221,1.079 226.96,0.649C227.697,0.216 228.539,0 229.487,0C230.552,0 231.418,0.168 232.085,0.505C232.749,0.839 233.251,1.306 233.589,1.904C233.928,2.503 234.134,3.192 234.206,3.971L231.388,3.971C231.341,3.607 231.251,3.306 231.117,3.067C230.982,2.826 230.793,2.646 230.548,2.527C230.303,2.408 229.982,2.348 229.586,2.348C229.177,2.348 228.82,2.462 228.516,2.69C228.211,2.92 227.976,3.273 227.81,3.748C227.644,4.225 227.561,4.835 227.561,5.578L227.561,6.109C227.561,6.835 227.639,7.437 227.797,7.914C227.957,8.389 228.205,8.742 228.541,8.975C228.88,9.207 229.317,9.323 229.851,9.323C230.118,9.323 230.343,9.303 230.529,9.262C230.712,9.224 230.866,9.176 230.992,9.118C231.118,9.061 231.213,9.003 231.279,8.946L231.279,7.403L229.509,7.403L229.509,5.329L234.212,5.329ZM241.474,8.463C241.474,8.261 241.432,8.082 241.347,7.927C241.259,7.769 241.083,7.614 240.816,7.46C240.548,7.307 240.141,7.14 239.596,6.959C239.106,6.792 238.63,6.603 238.168,6.39C237.703,6.175 237.287,5.923 236.919,5.636C236.55,5.346 236.256,5.005 236.037,4.613C235.819,4.222 235.711,3.763 235.711,3.236C235.711,2.572 235.903,1.999 236.286,1.518C236.671,1.036 237.198,0.665 237.864,0.403C238.529,0.138 239.285,0.006 240.133,0.006C240.97,0.006 241.71,0.149 242.353,0.435C242.994,0.718 243.498,1.125 243.864,1.655C244.231,2.185 244.414,2.819 244.414,3.556L241.497,3.556C241.497,3.313 241.447,3.098 241.347,2.911C241.244,2.723 241.088,2.577 240.877,2.473C240.666,2.369 240.397,2.316 240.069,2.316C239.753,2.316 239.487,2.361 239.27,2.451C239.055,2.538 238.894,2.653 238.788,2.796C238.681,2.938 238.628,3.098 238.628,3.275C238.628,3.479 238.711,3.656 238.877,3.805C239.043,3.956 239.274,4.097 239.57,4.227C239.866,4.357 240.209,4.487 240.599,4.617C241.411,4.877 242.099,5.18 242.663,5.527C243.227,5.872 243.658,6.283 243.954,6.76C244.25,7.235 244.398,7.798 244.398,8.447C244.398,9.14 244.225,9.726 243.88,10.208C243.535,10.687 243.045,11.052 242.411,11.304C241.776,11.553 241.029,11.677 240.171,11.677C239.579,11.677 238.998,11.602 238.43,11.451C237.859,11.299 237.343,11.065 236.883,10.748C236.423,10.43 236.057,10.024 235.784,9.527C235.512,9.031 235.375,8.437 235.375,7.745L238.308,7.745C238.308,8.058 238.346,8.317 238.42,8.524C238.497,8.733 238.613,8.901 238.768,9.029C238.924,9.157 239.119,9.247 239.353,9.3C239.587,9.356 239.86,9.384 240.171,9.384C240.495,9.384 240.751,9.34 240.941,9.253C241.131,9.163 241.267,9.048 241.35,8.907C241.433,8.767 241.474,8.619 241.474,8.463Z" style="fill:rgb(220,220,220);fill-rule:nonzero;"/>
                    </g>
                </g>
            </g>
        </g>
        <g transform="matrix(1,0,0,1,248.795,1.08851e-06)">
            <g>
                <g>
                    <g id="icon-0">
                        <path d="M52.168,10.877C52.168,10.273 51.967,9.735 51.698,9.198C51.228,8.325 50.355,7.721 49.415,7.453C48.61,7.251 47.804,7.251 47.066,7.587C46.528,6.915 45.79,6.445 44.984,6.244C44.648,6.177 44.246,6.11 43.843,6.11C43.037,6.11 42.299,6.378 41.627,6.781C41.694,6.513 41.694,6.177 41.694,5.841C41.56,3.76 39.814,2.148 37.666,2.283C36.726,2.35 35.92,2.753 35.249,3.357C34.645,2.753 33.839,2.35 32.966,2.216C32.429,1.074 31.355,0.269 30.146,0.067C29.945,0.067 29.743,-0 29.542,-0C27.662,-0 26.118,1.343 25.849,3.156C25.782,3.156 25.782,3.223 25.715,3.223L25.581,3.223C24.909,2.216 23.701,1.544 22.425,1.544C21.351,1.544 20.411,1.947 19.739,2.686C19.269,2.417 18.665,2.216 18.061,2.216C17.658,2.216 17.322,2.283 16.987,2.417C16.785,2.484 16.517,2.618 16.315,2.753C15.509,2.484 14.637,2.484 13.898,2.753C13.092,3.021 12.421,3.558 12.018,4.297C11.682,4.297 11.347,4.364 11.011,4.498C9.735,4.901 8.863,5.976 8.527,7.184C7.923,6.781 7.184,6.513 6.378,6.513C4.364,6.513 2.686,8.124 2.618,10.071C1.679,10.675 1.074,11.682 0.94,12.757C0.336,13.495 0,14.301 0,15.174C0,15.644 0.067,16.047 0.269,16.449L9.198,55.122L9.265,55.324C10.675,59.084 20.142,60.427 27.863,60.427C35.517,60.427 44.984,59.084 46.461,55.257L46.528,55.122L55.324,16.584C55.525,16.114 55.592,15.912 55.592,15.241C55.592,13.428 54.25,12.018 52.168,10.877ZM43.843,7.788C44.044,7.788 44.313,7.788 44.514,7.855C45.186,8.057 45.723,8.46 46.058,9.064L46.528,9.87L47.267,9.333C47.804,8.997 48.408,8.863 49.013,9.064C49.55,9.198 50.02,9.534 50.288,10.071C50.557,10.541 50.624,11.145 50.49,11.682C50.49,11.75 50.423,11.884 50.355,11.951L49.953,12.824L50.893,13.092C51.295,13.227 51.698,13.495 51.9,13.898C52.101,14.301 52.168,14.771 52.034,15.174C51.833,15.845 51.228,16.382 50.49,16.382L49.751,16.449L49.684,17.121C48.744,17.524 47.468,17.927 45.991,18.329C45.79,18.061 45.588,17.725 45.521,17.322C45.588,16.987 45.521,16.651 45.521,16.315C45.924,15.912 46.193,15.375 46.394,14.838C46.663,13.898 46.596,12.824 46.126,11.951C45.723,11.145 44.984,10.541 44.178,10.205C43.709,9.467 42.97,8.93 42.164,8.728C42.097,8.728 42.03,8.728 41.963,8.661C42.366,8.124 43.104,7.788 43.843,7.788ZM40.486,10.34C40.553,10.34 40.687,10.273 40.754,10.273L41.359,10.273C41.493,10.273 41.56,10.34 41.694,10.34C42.03,10.474 42.299,10.608 42.567,10.877C42.769,11.078 42.97,11.414 43.104,11.682C43.239,11.682 43.373,11.75 43.507,11.75C44.648,12.085 45.253,13.227 44.917,14.368C44.85,14.704 44.648,14.972 44.447,15.241C44.246,15.442 43.977,15.644 43.641,15.778C44.044,16.315 44.178,16.987 43.977,17.658C43.91,17.792 43.91,17.927 43.843,17.994C43.843,18.061 43.776,18.061 43.776,18.128C43.709,18.195 43.709,18.262 43.641,18.329C43.641,18.397 43.574,18.397 43.574,18.464L43.306,18.732C43.239,18.799 43.171,18.866 43.104,18.866L43.037,18.934C42.903,19.001 42.836,19.068 42.701,19.068L42.634,19.068C42.567,19.068 42.433,19.135 42.366,19.135L41.829,19.135C41.694,19.135 41.56,19.068 41.426,19.068C41.291,19.001 41.157,18.934 41.023,18.866C40.956,19.001 40.889,19.068 40.821,19.135L40.754,19.202C40.687,19.269 40.687,19.336 40.62,19.404L40.486,19.538C40.15,19.605 39.814,19.605 39.479,19.672C40.284,18.665 40.62,17.322 40.217,15.979C39.949,15.174 39.412,14.502 38.74,14.032C38.807,13.965 38.874,13.831 38.942,13.764C39.076,13.63 39.277,13.495 39.412,13.428C39.143,12.958 39.076,12.421 39.277,11.817C39.412,11.414 39.68,11.011 40.016,10.742C40.083,10.675 40.15,10.608 40.217,10.608L40.284,10.541C40.419,10.474 40.486,10.407 40.62,10.407C40.419,10.34 40.419,10.34 40.486,10.34ZM35.316,5.64L35.786,5.64L35.987,5.17C36.323,4.498 36.994,4.028 37.733,4.028L37.867,4.028C38.942,4.028 39.881,4.901 39.949,5.976C39.949,6.311 39.949,6.58 39.814,6.915L39.546,7.52L40.083,7.923C40.15,7.99 40.217,7.99 40.284,8.057C40.15,8.258 40.016,8.527 39.949,8.795C38.74,9.131 37.733,10.071 37.397,11.347C37.33,11.481 37.33,11.615 37.263,11.75L36.994,11.75L36.994,11.414C36.927,9.668 35.585,8.258 33.839,8.124C33.772,7.923 33.705,7.721 33.637,7.52C33.637,6.513 34.309,5.707 35.316,5.64ZM21.485,19.874L20.881,20.008L20.814,20.008C20.478,20.008 20.142,19.941 19.739,19.941C18.934,19.605 18.397,18.799 18.531,17.927C18.665,16.919 19.605,16.181 20.679,16.315C20.814,16.315 20.881,16.382 21.015,16.382L21.686,16.651L22.022,15.979C22.291,15.442 22.962,15.107 23.566,15.174C23.633,15.174 23.701,15.174 23.701,15.241L24.305,15.375L24.641,14.905C25.043,14.301 25.715,13.965 26.453,14.1C27.46,14.234 28.199,15.241 27.998,16.248L27.93,16.718L28.333,17.054C28.938,17.524 29.273,18.397 29.139,19.135C29.072,19.538 28.87,19.941 28.602,20.276L27.662,20.276C25.446,20.276 23.432,20.209 21.485,20.075L21.485,19.874ZM13.764,19.068C13.697,19.001 13.697,19.001 13.63,18.934C13.562,18.866 13.562,18.799 13.495,18.732C13.495,18.665 13.428,18.665 13.428,18.598C13.361,18.531 13.361,18.464 13.294,18.329C13.294,18.262 13.227,18.262 13.227,18.195C13.16,18.061 13.16,17.927 13.16,17.792L13.16,17.322C13.227,16.987 13.294,16.718 13.495,16.449C13.562,16.315 13.697,16.181 13.764,16.047C13.227,15.711 12.824,15.174 12.69,14.502C12.555,13.361 13.361,12.287 14.502,12.152L14.972,12.152C14.972,11.682 15.174,11.212 15.509,10.81C15.845,10.407 16.248,10.205 16.785,10.138L17.457,10.138C17.524,10.138 17.591,10.138 17.591,10.205C17.658,10.205 17.725,10.273 17.792,10.273C17.859,10.273 17.859,10.34 17.927,10.34C17.994,10.34 18.061,10.407 18.128,10.407C18.195,10.407 18.195,10.474 18.262,10.474C18.329,10.541 18.397,10.541 18.397,10.608C18.464,10.675 18.464,10.675 18.531,10.742C18.598,10.81 18.598,10.877 18.665,10.877C18.665,10.944 18.732,10.944 18.732,11.011C18.799,11.078 18.799,11.145 18.866,11.212C18.866,11.28 18.934,11.28 18.934,11.347C19.001,11.481 19.001,11.548 19.068,11.682C19.336,11.548 19.605,11.414 19.874,11.414L20.411,11.414C20.478,11.414 20.545,11.414 20.612,11.481C20.679,11.481 20.746,11.481 20.746,11.548C20.814,11.548 20.881,11.615 20.948,11.615C21.552,11.884 22.022,12.421 22.156,13.092L22.156,13.697C21.686,13.898 21.216,14.234 20.881,14.637C18.934,14.368 17.121,15.711 16.852,17.658C16.718,18.397 16.852,19.068 17.121,19.672C15.912,19.538 14.771,19.404 13.764,19.202C13.831,19.202 13.764,19.135 13.764,19.068ZM29.743,15.174C29.408,13.764 28.333,12.69 26.789,12.421C26.319,12.354 25.849,12.354 25.379,12.488C25.312,12.287 25.245,12.018 25.245,11.817C25.245,10.675 26.185,9.735 27.326,9.735C27.662,9.735 27.93,9.803 28.199,9.937L28.803,10.205L29.206,9.668C29.542,9.198 30.012,8.997 30.616,8.997C31.153,8.997 31.623,9.198 31.959,9.601L32.362,10.071L32.899,9.87C33.1,9.803 33.302,9.735 33.57,9.735C34.51,9.735 35.316,10.541 35.316,11.481L35.316,11.682C35.047,11.615 34.712,11.548 34.443,11.548C34.04,11.548 33.705,11.615 33.369,11.75C32.295,12.085 31.489,13.025 31.153,14.1C30.549,14.301 30.079,14.704 29.743,15.174ZM27.393,3.491C27.595,2.35 28.602,1.544 29.81,1.746C30.616,1.88 31.288,2.484 31.489,3.29L31.623,3.894L32.563,3.894C32.966,3.961 33.302,4.096 33.637,4.297C32.496,4.901 31.825,6.11 31.892,7.453C31.489,7.251 31.019,7.184 30.549,7.184C30.348,7.184 30.146,7.184 29.945,7.251C29.878,7.184 29.81,7.184 29.743,7.117C29.542,5.573 28.602,4.297 27.259,3.626C27.393,3.693 27.393,3.626 27.393,3.491ZM19.739,6.781L20.411,6.58L20.276,5.841C20.276,5.707 20.209,5.573 20.209,5.438C20.209,4.297 21.149,3.357 22.291,3.357C23.096,3.357 23.835,3.827 24.171,4.566L24.439,5.103L25.043,5.036L25.379,5.036C26.856,5.036 28.132,6.244 28.132,7.788L28.132,8.191C27.863,8.124 27.595,8.057 27.326,8.057C25.245,8.057 23.566,9.735 23.566,11.817L23.566,12.018C22.962,10.742 21.619,9.803 20.142,9.803L19.874,9.803C19.538,9.4 19.068,9.064 18.598,8.863C18.531,8.728 18.531,8.527 18.531,8.325C18.598,7.654 19.001,6.983 19.739,6.781ZM11.548,6.11C11.75,6.043 11.951,5.976 12.22,5.976L12.488,5.976L13.16,6.043L13.361,5.371C13.562,4.834 13.898,4.431 14.435,4.297C14.905,4.163 15.442,4.163 15.912,4.431L16.449,4.767L16.919,4.364C17.121,4.23 17.255,4.096 17.524,4.028C17.994,3.894 18.464,3.961 18.866,4.163C18.732,4.566 18.665,4.968 18.665,5.371C17.658,5.976 16.987,7.05 16.987,8.258L16.987,8.46L16.651,8.46C15.308,8.661 14.234,9.467 13.697,10.608C13.562,10.675 13.361,10.742 13.227,10.81C12.958,10.541 12.69,10.34 12.354,10.205L12.354,10.138L12.22,10.138C11.951,10.004 11.615,9.937 11.347,9.87C10.877,9.601 10.474,9.198 10.34,8.661C9.803,7.654 10.407,6.445 11.548,6.11ZM4.297,15.778C4.297,15.644 4.297,15.442 4.364,15.308C3.357,15.107 2.618,14.301 2.618,13.227C2.618,12.421 3.088,11.75 3.76,11.347C3.961,11.212 4.23,11.145 4.498,11.145C4.431,11.011 4.364,10.877 4.364,10.742C4.364,10.608 4.297,10.474 4.297,10.273C4.297,9.131 5.237,8.191 6.378,8.191C7.52,8.191 8.46,9.131 8.46,10.273C8.46,10.742 8.258,11.212 7.99,11.548C8.191,11.615 8.393,11.682 8.594,11.75C8.795,11.817 8.93,11.951 9.064,12.085C9.467,11.682 9.937,11.481 10.541,11.481C11.011,11.481 11.414,11.615 11.817,11.884C11.212,12.69 10.877,13.63 11.011,14.704C11.078,15.308 11.28,15.845 11.615,16.315C11.548,16.449 11.548,16.584 11.481,16.718C11.145,17.322 10.474,17.725 9.668,17.725C9.467,17.725 9.333,17.725 9.198,17.658C8.863,17.591 8.594,17.457 8.325,17.255C8.191,17.121 8.124,17.054 7.99,16.919C7.923,17.054 7.788,17.188 7.654,17.255C7.52,17.389 7.318,17.457 7.184,17.524C5.908,17.121 4.968,16.651 4.297,16.248C4.364,16.181 4.297,15.979 4.297,15.778ZM12.354,54.25L4.498,20.142C6.043,20.814 7.855,21.351 9.803,21.821L15.241,55.727C13.63,55.19 12.622,54.72 12.354,54.25ZM16.987,56.13L11.548,22.156C13.227,22.492 15.039,22.761 16.852,22.962L20.075,56.667C18.934,56.532 17.927,56.331 16.987,56.13ZM21.754,56.935L18.531,23.231C20.276,23.365 21.955,23.499 23.566,23.566L24.641,57.137C23.633,57.069 22.694,57.002 21.754,56.935ZM29.206,57.204L26.386,57.204L25.312,23.633C26.185,23.633 27.058,23.701 27.796,23.701C28.535,23.701 29.408,23.701 30.28,23.633L29.206,57.204ZM30.818,17.658L30.885,17.658L30.885,16.919C30.885,16.315 31.288,15.778 31.825,15.577C31.892,15.577 31.892,15.577 31.959,15.509L32.563,15.375L32.63,14.771C32.697,14.1 33.167,13.495 33.839,13.294C34.04,13.227 34.242,13.227 34.376,13.227C35.115,13.227 35.853,13.697 36.054,14.435L36.189,14.905L36.659,14.972C37.397,15.107 38.002,15.644 38.27,16.382C38.673,17.524 38.069,18.732 36.927,19.135C36.726,19.269 36.39,19.269 36.054,19.269L35.383,19.202L35.182,19.874C35.182,19.941 35.115,20.008 35.115,20.075C33.705,20.209 32.295,20.276 30.75,20.276C30.885,20.008 30.952,19.739 31.019,19.404C31.019,18.799 31.019,18.195 30.818,17.658ZM30.885,57.137L31.959,23.566C33.57,23.499 35.249,23.365 36.994,23.231L33.839,56.935C32.899,57.002 31.959,57.069 30.885,57.137ZM35.517,56.734L38.74,23.029C40.553,22.828 42.299,22.559 44.044,22.224L38.606,56.197C37.666,56.331 36.659,56.532 35.517,56.734ZM43.239,54.25C42.97,54.652 41.963,55.19 40.351,55.66L45.79,21.754C47.737,21.284 49.55,20.746 51.094,20.075L43.239,54.25Z" style="fill:white;fill-rule:nonzero;"/>
                    </g>
                </g>
            </g>
        </g>
    </g>
</svg>
